{
	"asset":{
		"generator":"Khronos glTF Blender I/O v3.6.27",
		"version":"2.0"
	},
	"scene":0,
	"scenes":[
		{
			"name":"Scene",
			"nodes":[
				0,
				1
			]
		}
	],
	"nodes":[
		{
			"mesh":0,
			"name":"BezierCurve",
			"translation":[
				0,
				-0.014999999664723873,
				0
			]
		},
		{
			"name":"Empty",
			"rotation":[
				0,
				0.3420201539993286,
				0,
				0.9396926760673523
			]
		}
	],
	"meshes":[
		{
			"name":"Mesh",
			"primitives":[
				{
					"attributes":{
						"POSITION":0,
						"NORMAL":1
					},
					"indices":2
				}
			]
		}
	],
	"accessors":[
		{
			"bufferView":0,
			"componentType":5126,
			"count":2592,
			"max":[
				1,
				0.029999999329447746,
				0.9869167804718018
			],
			"min":[
				-0.9484881162643433,
				0,
				-0.9873232841491699
			],
			"type":"VEC3"
		},
		{
			"bufferView":1,
			"componentType":5126,
			"count":2592,
			"type":"VEC3"
		},
		{
			"bufferView":2,
			"componentType":5123,
			"count":5076,
			"type":"SCALAR"
		}
	],
	"bufferViews":[
		{
			"buffer":0,
			"byteLength":31104,
			"byteOffset":0,
			"target":34962
		},
		{
			"buffer":0,
			"byteLength":31104,
			"byteOffset":31104,
			"target":34962
		},
		{
			"buffer":0,
			"byteLength":10152,
			"byteOffset":62208,
			"target":34963
		}
	],
	"buffers":[
		{
			"byteLength":72360,
			"uri":"data:application/octet-stream;base64,"
		}
	]
}
